Coordinates
version=1
nRows=13
nColumns=34
inDegrees=yes

Units are S.I. units (second, meters, Newtons, ...)
If the header above contains a line with 'inDegrees', this indicates whether rotational values are in degrees (yes) or radians (no).

endheader
time	pelvis_tilt	pelvis_list	pelvis_rotation	pelvis_tx	pelvis_ty	pelvis_tz	hip_flexion_r	hip_adduction_r	hip_rotation_r	knee_angle_r	ankle_angle_r	subtalar_angle_r	mtp_angle_r	hip_flexion_l	hip_adduction_l	hip_rotation_l	knee_angle_l	ankle_angle_l	subtalar_angle_l	mtp_angle_l	lumbar_extension	lumbar_bending	lumbar_rotation	arm_flex_r	arm_add_r	arm_rot_r	elbow_flex_r	pro_sup_r	arm_flex_l	arm_add_l	arm_rot_l	elbow_flex_l	pro_sup_l
      3.88333330	      3.04608139	      5.70907259	    -54.83743762	      0.05055568	      1.02489440	      0.23303353	     -5.49006649	     -5.70068783	    -18.63381355	     32.78686803	      6.44364600	     13.22703494	      0.00000000	      7.19376873	      0.58352751	     16.63784071	      8.43399527	     -2.49862477	     -3.55008309	      0.00000000	     -9.37417751	    -13.28443989	     13.97565430	     40.62411486	    -29.70494527	     17.02192879	     43.94078835	    117.76776076	      8.32770553	    -21.57303918	     24.01642029	     59.44459122	    119.74817918
      3.90000000	      3.12724285	      5.90205876	    -54.66357793	      0.05144809	      1.02469097	      0.23563915	     -5.58117466	     -5.78737899	    -17.00170228	     32.11812045	      6.39733383	     14.06853768	      0.00000000	      7.19976468	      0.72823410	     16.66828459	      8.52168205	     -2.40456822	     -3.38497752	      0.00000000	     -9.34954437	    -13.29693140	     13.15831286	     39.67600585	    -28.83181109	     17.23160086	     44.15359030	    117.85813804	      8.31080182	    -21.27166244	     24.46262350	     59.30384455	    119.74817918
      3.91666670	      3.14735949	      5.50099119	    -55.15834869	      0.05106824	      1.02515103	      0.23969561	     -6.02851359	     -5.36822438	    -14.34253935	     31.31902260	      5.92372198	     14.70189135	      0.00000000	      6.42761801	      0.20603413	     15.71143653	      8.23561275	     -1.78013124	     -2.48503349	      0.00000000	     -9.55084061	    -13.03444550	     13.52102722	     38.02044189	    -28.06157915	     15.89232456	     44.72295669	    118.24239864	      8.98868608	    -21.02130831	     26.22095448	     58.86620831	    119.74817918
      3.93333330	      3.21843579	      5.62850052	    -54.96909470	      0.05170957	      1.02501610	      0.24211430	     -5.96348703	     -5.49204776	    -12.62517927	     30.90944441	      5.68480888	     15.75082937	      0.00000000	      6.38417993	      0.29029439	     15.85438943	      8.29143195	     -1.64083694	     -2.29016582	      0.00000000	     -9.50611610	    -13.00787351	     12.60191531	     37.05901484	    -27.01915289	     16.15053989	     44.86909423	    118.32281519	      9.01334293	    -20.60243282	     26.62644266	     58.62082210	    119.74817918
      3.95000000	      3.23181665	      5.24200561	    -55.52227681	      0.05107862	      1.02536123	      0.24566032	     -6.39862850	     -5.23637237	    -11.12001903	     30.31906393	      5.32388844	     16.28918035	      0.00000000	      5.63155931	     -0.20505553	     15.03245839	      7.96428626	     -1.10134156	     -1.54308578	      0.00000000	     -9.62358225	    -12.69528249	     12.81539160	     35.74363118	    -25.95481181	     15.32415043	     44.97948036	    118.60931378	      9.69005262	    -20.15708065	     28.23977085	     57.79551590	    119.74817918
      3.96666670	      3.33045618	      5.34099911	    -55.69568727	      0.05126257	      1.02489762	      0.24831916	     -6.56169224	     -5.37476070	    -10.56004610	     29.89750119	      5.23095589	     16.52252659	      0.00000000	      5.45309913	     -0.16196777	     14.90855719	      7.91768866	     -0.87834848	     -1.47506715	      0.00000000	     -9.51301265	    -12.64694686	     12.21543217	     34.78537961	    -24.85315674	     15.67373589	     45.12205486	    118.69780180	      9.74542492	    -19.65268651	     28.66076657	     57.51961079	    119.74817918
      3.98333330	      3.38533763	      5.28752277	    -55.96097791	      0.05087930	      1.02437217	      0.25094746	     -6.70043001	     -5.42989419	    -10.31508344	     29.75815297	      5.15083953	     16.65583484	      0.00000000	      5.18650565	     -0.28566591	     14.73245412	      7.87789878	     -0.72317391	     -1.47272246	      0.00000000	     -9.50637270	    -12.50581193	     11.72276302	     33.86096516	    -23.74625294	     16.02215519	     45.18408799	    118.75198328	      9.84522363	    -19.15416780	     29.07596143	     57.24839391	    119.74817918
      4.00000000	      3.71210640	      4.43836413	    -56.54350223	      0.05014962	      1.02540739	      0.25477827	     -8.29513284	     -5.05309469	     -9.69110003	     28.43542830	      4.60971518	     16.71118309	      0.00000000	      3.60770237	     -0.81820477	     13.66988518	      7.18603225	     -0.14365273	     -0.18728032	      0.00000000	    -10.27120075	    -12.17456331	     12.10537133	     32.59012136	    -22.97278215	     15.50546590	     45.57105937	    118.90383140	     11.02649916	    -18.48516619	     31.26885646	     56.01788069	    119.74817918
      4.01666670	      3.68431467	      4.43085045	    -56.87581576	      0.04939477	      1.02477102	      0.25733728	     -8.36294676	     -5.04770984	     -9.58952948	     28.29118447	      4.56373653	     16.83156147	      0.00000000	      3.30731148	     -1.01259611	     13.48889727	      6.91660462	      0.15244221	     -0.16740253	      0.00000000	    -10.19420393	    -11.97991022	     11.70202357	     31.84910474	    -21.81834395	     15.82328476	     45.65857244	    118.94766825	     11.12469894	    -17.87972052	     31.55265151	     55.74549600	    119.74817918
      4.03333330	      3.84857325	      3.73098343	    -57.46464081	      0.04866525	      1.02530541	      0.26099638	     -9.48270060	     -4.79739642	     -9.30677721	     27.55847658	      4.24033277	     17.19671164	      0.00000000	      2.00913625	     -1.51092240	     12.71160703	      6.36816838	      0.68321162	      0.60311151	      0.00000000	    -10.70359816	    -11.55829610	     11.88680849	     30.84333361	    -20.94606576	     15.71941275	     45.89678809	    119.02946454	     11.59614119	    -17.10067647	     32.30310245	     55.07707555	    119.74817918
      4.05000000	      3.88977511	      3.69720875	    -57.80997213	      0.04765459	      1.02482429	      0.26369337	     -9.57183831	     -4.83549080	     -9.26906679	     27.57751778	      4.25150809	     17.23175901	      0.00000000	      1.76427411	     -1.65165798	     12.61113345	      6.35718570	      0.91398192	      0.54620427	      0.00000000	    -10.68615081	    -11.44448038	     11.49996500	     30.05389956	    -19.83537396	     16.06741304	     46.02640267	    119.06595571	     11.59702936	    -16.62708140	     32.45579164	     54.94811164	    119.74817918
      4.06666670	      4.09733559	      3.12588307	    -58.38473438	      0.04704500	      1.02527018	      0.26778191	    -10.73021122	     -4.69331570	     -8.98281236	     26.69666332	      4.01442222	     17.77161311	      0.00000000	      0.42915301	     -2.01335418	     11.88158460	      5.65143488	      1.52216038	      1.22293177	      0.00000000	    -11.06035326	    -11.12318849	     11.51425621	     29.00302425	    -18.80421914	     15.75552818	     46.41932381	    119.09272814	     11.64637241	    -15.82436201	     32.42180588	     54.28014868	    119.74817918
      4.08333330	      4.20407520	      3.04217695	    -58.79248728	      0.04655767	      1.02481956	      0.27154586	    -11.22297738	     -4.69373941	     -8.80077432	     26.20933479	      3.98630919	     17.92092404	      0.00000000	     -0.14076671	     -2.14334556	     11.60059091	      5.39669669	      1.93139714	      1.36045849	      0.00000000	    -10.92693270	    -11.06340447	     11.30555543	     27.94656825	    -17.79286771	     16.03157249	     46.65899816	    119.14388449	     11.46372469	    -15.43949966	     32.55916766	     54.12500904	    119.74817918
